<svg xmlns="http://www.w3.org/2000/svg" style="fill:color(display-p3 .8824 0 .5961)" viewBox="0 0 367 100"  title="GraphQL"><path fill-rule="evenodd" d="m50 6.468 37.7 21.766v43.532L50 93.532 12.3 71.766V28.234zM16.53 30.676v31.976l27.692-47.964zM50 13.14 18.078 68.43h63.844zm27.692 59.52H22.308L50 88.648zm5.778-10.008L55.778 14.688 83.47 30.676z" clip-rule="evenodd"></path><circle cx="14.41" cy="29.45" r="8.91"></circle><circle cx="14.41" cy="70.545" r="8.91"></circle><circle cx="50" cy="91.09" r="8.91"></circle><circle cx="85.585" cy="70.545" r="8.91"></circle><circle cx="85.585" cy="29.455" r="8.91"></circle><circle cx="50" cy="8.91" r="8.91"></circle><path d="M138.875 71.625q-7.812 0-12.125-4.5t-4.562-12.062q-.063-1.876-.063-5.938t.063-5.937q.25-7.563 4.562-12.063t12.125-4.5q5.313 0 8.938 2 3.624 2 5.375 4.75 1.812 2.688 1.937 4.813v.124q0 .501-.375.813-.375.313-.938.313h-1.374q-.562 0-.813-.25t-.5-1q-1.062-3.313-4.125-5.563-3-2.25-8.125-2.25-5.812 0-9.187 3.188-3.313 3.187-3.563 9.937-.062 1.875-.062 5.625t.062 5.625q.25 6.75 3.563 9.938 3.375 3.186 9.187 3.187 5.813 0 9.375-3.312 3.562-3.314 3.562-9.813v-3.187h-10.874q-.625 0-1-.376a1.58 1.58 0 0 1-.375-1.062v-.875q0-.625.375-1 .375-.437 1-.437h13.374q.688 0 1.063.374.375.376.375 1.063v5.5q0 4.999-2 8.813-2 3.811-5.812 5.937-3.813 2.125-9.063 2.125M165.941 71q-.625 0-1-.375t-.375-1V39.938q0-.625.375-1 .375-.438 1-.438h1q.625 0 1 .438.438.375.438 1v2.874q2.25-4.312 8.5-4.312h2.312q.625 0 1 .375t.375 1v.875q0 .625-.375 1t-1 .375h-2.687q-3.75 0-5.938 2.188-2.187 2.187-2.187 5.937v19.375q0 .625-.438 1-.375.375-1 .375zM194.557 71.625q-3 0-5.563-1.25T184.869 67q-1.5-2.126-1.5-4.687 0-4.125 3.313-6.75 3.374-2.625 9.062-3.376l9.875-1.374v-2.188q0-3.438-2.125-5.25-2.063-1.875-6.375-1.875-3.188 0-5.25 1.25-2 1.25-2.562 3-.25.75-.625 1.063-.313.25-.875.25h-.875q-.563 0-1-.376a1.5 1.5 0 0 1-.375-1q0-1.374 1.25-3.187 1.25-1.875 3.875-3.25t6.437-1.375q6.687 0 9.5 3.188 2.813 3.187 2.813 7.75v20.812q0 .625-.375 1-.376.375-1 .375h-1.063q-.625 0-1-.375t-.375-1v-2.937q-1.375 2.061-4.062 3.5-2.626 1.437-7 1.437m.625-3.625q4.561 0 7.5-3 2.937-3 2.937-8.625V54.25l-8.062 1.125q-5.125.687-7.75 2.375T187.182 62q0 2.875 2.375 4.438Q191.994 68 195.182 68M220.752 82.875q-.624 0-1-.375-.375-.375-.375-1V39.875q0-.625.375-1 .376-.375 1-.375h1.063q.625 0 1 .375t.375 1v2.938q3.626-4.938 10.5-4.938 6.75 0 9.937 4.313 3.25 4.25 3.438 10.5.063.624.062 2.062 0 1.437-.062 2.063-.187 6.25-3.438 10.562-3.187 4.25-9.937 4.25-6.813 0-10.5-4.937V81.5q0 .625-.375 1t-1 .375zM233.315 68q5.062 0 7.375-3.187 2.375-3.25 2.562-8.313.063-.625.063-1.75 0-5.813-2.25-9.5-2.25-3.75-7.75-3.75-4.938 0-7.438 3.313-2.5 3.25-2.687 7.687l-.063 2.438.063 2.437a12.8 12.8 0 0 0 1.187 5.125q1.125 2.375 3.375 3.938Q230.002 68 233.315 68M257.068 71q-.625 0-1-.375t-.375-1V28q0-.625.375-1t1-.375h1.063q.625 0 1 .375t.375 1v14.813q1.875-2.439 4.25-3.688 2.437-1.25 6.25-1.25 6.125 0 9.437 3.938 3.313 3.874 3.313 10.062v17.75q0 .625-.375 1t-1 .375h-1.063q-.625 0-1-.375t-.375-1V52.188q0-5.063-2.5-7.876-2.437-2.812-7.062-2.812-4.5 0-7.188 2.875-2.687 2.813-2.687 7.813v17.437q0 .625-.375 1t-1 .375zM321.682 75.063q-.938 0-2-1.438l-2.75-3.812q-3.75 1.812-8.75 1.812-16.062 0-16.5-17.25-.062-1.875-.062-5.25t.062-5.25q.25-8.5 4.625-12.875t11.875-4.375T320.057 31t4.625 12.875q.125 3.75.125 5.25t-.125 5.25q-.312 8.937-4.562 13.125l4 5.625q.187.376.187.688a1.2 1.2 0 0 1-.375.874 1.2 1.2 0 0 1-.875.376zm-13.5-7.188q5.625 0 8.938-3.375 3.375-3.437 3.625-10.437.125-3.75.125-4.938t-.125-4.937q-.25-7-3.625-10.376-3.375-3.437-8.938-3.437-5.562 0-8.937 3.438-3.375 3.375-3.625 10.374-.063 1.875-.063 4.938t.063 4.938q.25 6.999 3.562 10.437 3.375 3.375 9 3.375M336.126 71q-.625 0-1-.375t-.375-1v-41q0-.625.375-1t1-.375h1.188q.625 0 1 .375t.375 1V67.25h21.562q.688 0 1.063.375t.375 1.063v.937q0 .625-.438 1-.375.375-1 .375z"></path></svg>